<svg xmlns="http://www.w3.org/2000/svg" width="277.958" height="33.798"><path d="M40.71.76l-1.569 6.783H23.729l-1.384 6.183h14.166l-1.384 5.956H20.961l-3.046 13.563H9.748L17.135.76zm10.797 0h8.213l4.845 32.485h-8.167l-.877-5.353H43.34l-3.276 5.353h-8.167zm2.307 10.059l.231-3.23-1.292 3.23-5.906 11.12h7.845zm21.041 12.32a5.369 5.369 0 00.183 1.384 3.086 3.086 0 00.666 1.246 3.44 3.44 0 001.355.9 6.169 6.169 0 002.25.346 7.713 7.713 0 001.791-.208 5.527 5.527 0 001.538-.6 3.6 3.6 0 001.079-.945 2.032 2.032 0 00.413-1.246 2.266 2.266 0 00-.942-1.753 14.531 14.531 0 00-2.345-1.546q-1.4-.761-3.058-1.592a17.757 17.757 0 01-3.058-1.939 10.376 10.376 0 01-2.345-2.584 6.372 6.372 0 01-.942-3.506 9.04 9.04 0 011.082-4.361 11.041 11.041 0 012.926-3.458A14.254 14.254 0 0179.73.993a15.9 15.9 0 015.159-.831 13.886 13.886 0 014.443.646 9.544 9.544 0 013.2 1.753 7.016 7.016 0 011.934 2.653 8.6 8.6 0 01.645 3.345 4.614 4.614 0 01-.023.462 4.531 4.531 0 00-.023.462l-7.337 1.2a1.04 1.04 0 01.023-.208 1.057 1.057 0 00.023-.208 3 3 0 00-1.147-2.33 4.611 4.611 0 00-3.12-.992 6.2 6.2 0 00-1.515.185 4.047 4.047 0 00-1.308.577 3 3 0 00-.918.992 2.732 2.732 0 00-.344 1.384 2.446 2.446 0 00.943 1.915 11.682 11.682 0 002.367 1.522q1.426.717 3.081 1.477a18.9 18.9 0 013.08 1.776 9.342 9.342 0 012.368 2.422 6.035 6.035 0 01.943 3.438 8.64 8.64 0 01-1.154 4.338 12.1 12.1 0 01-3.091 3.553 15.11 15.11 0 01-4.522 2.4 16.854 16.854 0 01-5.445.877 15.228 15.228 0 01-4.753-.669 9.544 9.544 0 01-3.368-1.846 7.96 7.96 0 01-2.031-2.7 7.827 7.827 0 01-.692-3.277v-.623a2.762 2.762 0 01.093-.669zM123.535.76l-1.522 6.69h-8.906l-5.859 25.795h-8.214l5.861-25.795h-8.86L97.558.76z" fill="#00da51"/><path d="M152.126.6l-1.523 6.69h-8.905l-5.859 25.795h-8.214l5.86-25.795h-8.859L126.148.6zm3.553 25.701h15.919l-1.522 6.784h-24.087L153.372.6h23.58l-1.569 6.782H159.97l-1.384 6.184h14.026l-1.384 5.953h-14.026zM180.458.6h9.091l5.814 18.826.369 2.584.369-2.63L200.393.6h8.214l-7.384 32.485h-8.907l-6-18.735-.414-2.63-.415 2.63-4.245 18.735h-8.168zm31.93 0h9.09l5.814 18.826.369 2.584.369-2.63L232.322.6h8.214l-7.383 32.485h-8.907l-6-18.735-.415-2.63-.415 2.63-4.245 18.735h-8.168zm31.931 0h8.167l-7.383 32.485h-8.167zm13.382 22.379a5.37 5.37 0 00.183 1.385 3.073 3.073 0 00.666 1.246 3.431 3.431 0 001.355.9 6.182 6.182 0 002.25.346 7.691 7.691 0 001.791-.208 5.518 5.518 0 001.538-.6 3.6 3.6 0 001.079-.946 2.035 2.035 0 00.413-1.246 2.264 2.264 0 00-.942-1.753 14.47 14.47 0 00-2.345-1.546q-1.4-.761-3.058-1.592a17.7 17.7 0 01-3.058-1.938 10.4 10.4 0 01-2.345-2.584 6.375 6.375 0 01-.942-3.507 9.047 9.047 0 011.082-4.361 11.052 11.052 0 012.925-3.461A14.23 14.23 0 01262.575.83a15.889 15.889 0 015.159-.831 13.878 13.878 0 014.443.646 9.542 9.542 0 013.2 1.753 7.022 7.022 0 011.934 2.653 8.611 8.611 0 01.646 3.346c0 .154-.008.307-.023.462a4.414 4.414 0 00-.024.461l-7.337 1.2a1.037 1.037 0 01.023-.207 1.12 1.12 0 00.023-.208 3 3 0 00-1.147-2.33 4.613 4.613 0 00-3.12-.992 6.232 6.232 0 00-1.515.184 4.071 4.071 0 00-1.308.577 3 3 0 00-.918.992 2.732 2.732 0 00-.343 1.384 2.447 2.447 0 00.942 1.916 11.683 11.683 0 002.368 1.522q1.425.715 3.081 1.476a18.979 18.979 0 013.08 1.777 9.349 9.349 0 012.368 2.422 6.041 6.041 0 01.943 3.438 8.646 8.646 0 01-1.154 4.338 12.1 12.1 0 01-3.092 3.553 15.08 15.08 0 01-4.522 2.4 16.834 16.834 0 01-5.445.877 15.242 15.242 0 01-4.753-.669 9.557 9.557 0 01-3.368-1.846 7.96 7.96 0 01-2.03-2.7 7.817 7.817 0 01-.693-3.277v-.623a2.771 2.771 0 01.093-.67z" fill="#fff"/><path d="M195.132 18.685l.587 1.85.67-2.414-.173 4.137-1.446-.113zm31.902-.076l.587 1.85.715-2.414-.218 4.137-1.446-.113zm-40.647-4.035l-.858-2.693 1.276-.577.7 3.448zm31.912-.073l-.858-2.692 1.276-.577.7 3.448z"/><path fill="#00da51" d="M67.155 22.302h7.733v2.405h-7.733z"/><path d="M11.291 22.484h100.988l5.537-2.877H3.976zm-3.71 5.9l104.744.239 5.75-2.863L0 25.491z"/></svg>