<svg xmlns="http://www.w3.org/2000/svg" width="208" height="39.718"><path d="M30.46.568l-1.179 5.075H17.755l-1.036 4.626h10.6l-1.038 4.454h-10.6l-2.278 10.15H7.294L12.818.568zm8.078 0h6.145l3.625 24.305h-6.111l-.656-4h-9.115l-2.451 4h-6.111zm1.726 7.526l.173-2.417-.967 2.417-4.419 8.32h5.869zm15.743 9.218a4.017 4.017 0 00.137 1.036 2.309 2.309 0 00.5.932 2.574 2.574 0 001.014.673 4.616 4.616 0 001.683.259 5.771 5.771 0 001.34-.155 4.135 4.135 0 001.151-.449 2.7 2.7 0 00.807-.707 1.521 1.521 0 00.309-.932 1.7 1.7 0 00-.705-1.312 10.872 10.872 0 00-1.754-1.157q-1.049-.569-2.288-1.191a13.286 13.286 0 01-2.288-1.45 7.763 7.763 0 01-1.754-1.933 4.767 4.767 0 01-.705-2.623 6.764 6.764 0 01.81-3.263 8.261 8.261 0 012.188-2.589 10.665 10.665 0 013.2-1.709 11.9 11.9 0 013.86-.621 10.39 10.39 0 013.325.483 7.141 7.141 0 012.395 1.312 5.249 5.249 0 011.447 1.985 6.438 6.438 0 01.483 2.5 3.453 3.453 0 01-.017.345 3.393 3.393 0 00-.017.345l-5.489.9a.777.777 0 01.017-.155.791.791 0 00.017-.155 2.245 2.245 0 00-.858-1.743 3.45 3.45 0 00-2.335-.742 4.642 4.642 0 00-1.133.138 3.028 3.028 0 00-.979.431 2.242 2.242 0 00-.687.742 2.044 2.044 0 00-.258 1.036 1.83 1.83 0 00.705 1.433 8.741 8.741 0 001.771 1.139q1.067.536 2.305 1.105a14.14 14.14 0 012.3 1.329 6.99 6.99 0 011.772 1.812 4.516 4.516 0 01.706 2.572 6.464 6.464 0 01-.863 3.246 9.051 9.051 0 01-2.313 2.658 11.305 11.305 0 01-3.383 1.8 12.61 12.61 0 01-4.074.656 11.394 11.394 0 01-3.556-.5 7.141 7.141 0 01-2.52-1.381 5.956 5.956 0 01-1.519-2.019 5.856 5.856 0 01-.518-2.452v-.466a2.067 2.067 0 01.07-.5zM92.431.568l-1.139 5.006h-6.664l-4.385 19.3h-6.145l4.385-19.3h-6.629L72.993.568z" fill="#00da51"/><path d="M113.821.449l-1.139 5.006h-6.664l-4.385 19.3h-6.145l4.385-19.3h-6.628L94.384.449zm2.658 19.23h11.911l-1.138 5.075h-18.023L114.753.449h17.642l-1.174 5.074H119.69l-1.036 4.627h10.498l-1.036 4.454h-10.5zM135.015.449h6.8l4.35 14.085.276 1.934.276-1.968L149.928.449h6.145l-5.525 24.305h-6.663l-4.488-14.017-.31-1.968-.311 1.968-3.171 14.017h-6.111zm23.894 0h6.8l4.35 14.085.276 1.934.276-1.968L173.822.449h6.145l-5.524 24.305h-6.663l-4.488-14.017-.31-1.968-.311 1.968-3.175 14.017h-6.111zm23.89 0h6.111l-5.524 24.305h-6.111zm10.013 16.744a4.018 4.018 0 00.137 1.036 2.3 2.3 0 00.5.932 2.567 2.567 0 001.013.674 4.625 4.625 0 001.683.259 5.754 5.754 0 001.34-.156 4.128 4.128 0 001.151-.449 2.692 2.692 0 00.808-.708 1.522 1.522 0 00.309-.932 1.694 1.694 0 00-.705-1.312 10.829 10.829 0 00-1.754-1.157q-1.05-.569-2.288-1.191a13.241 13.241 0 01-2.288-1.45 7.778 7.778 0 01-1.755-1.933 4.77 4.77 0 01-.7-2.624 6.769 6.769 0 01.809-3.263 8.269 8.269 0 012.188-2.589 10.647 10.647 0 013.2-1.709 11.888 11.888 0 013.86-.622 10.384 10.384 0 013.325.484 7.139 7.139 0 012.395 1.312 5.255 5.255 0 011.447 1.985 6.444 6.444 0 01.483 2.5c0 .115-.006.23-.017.345a3.291 3.291 0 00-.018.345l-5.489.9a.776.776 0 01.017-.155.835.835 0 00.017-.156 2.245 2.245 0 00-.858-1.743 3.451 3.451 0 00-2.334-.742 4.664 4.664 0 00-1.134.138 3.046 3.046 0 00-.978.432 2.244 2.244 0 00-.687.742 2.044 2.044 0 00-.257 1.036 1.831 1.831 0 00.7 1.433 8.741 8.741 0 001.772 1.139q1.066.535 2.3 1.1a14.2 14.2 0 012.3 1.33 7 7 0 011.772 1.812 4.52 4.52 0 01.706 2.572 6.47 6.47 0 01-.863 3.246 9.057 9.057 0 01-2.313 2.658 11.282 11.282 0 01-3.383 1.795 12.6 12.6 0 01-4.074.656 11.4 11.4 0 01-3.556-.5 7.15 7.15 0 01-2.52-1.381 5.956 5.956 0 01-1.519-2.019 5.849 5.849 0 01-.518-2.452v-.466a2.073 2.073 0 01.07-.5zM157.203 31.58l3.336 8.058h-1.62l-.6-1.459h-2.827q-.138.342-.3.735t-.291.724h-1.619l3.293-8.058zm.455 5.015l-.762-1.846-.762 1.846zm9.404 1.709a4.873 4.873 0 01-1.35 1.043 3.318 3.318 0 01-1.53.37 3.447 3.447 0 01-1.557-.347 3.783 3.783 0 01-1.191-.918 4.119 4.119 0 01-.757-1.3 4.345 4.345 0 01-.265-1.493 4.242 4.242 0 01.312-1.641 4.09 4.09 0 01.837-1.294 3.821 3.821 0 011.207-.844 3.411 3.411 0 012.88.034 4.062 4.062 0 011.3.963l-1.027 1.117a2.747 2.747 0 00-.821-.616 2.1 2.1 0 00-.916-.216 2.055 2.055 0 00-.9.2 2.393 2.393 0 00-.731.535 2.5 2.5 0 00-.492.792 2.613 2.613 0 00-.18.969 2.565 2.565 0 00.18.963 2.508 2.508 0 00.492.786 2.314 2.314 0 00.731.53 2.1 2.1 0 00.9.194 2.011 2.011 0 00.979-.245 3.414 3.414 0 00.863-.689zm3.844-6.724l3.336 8.058h-1.62l-.6-1.459h-2.831q-.138.342-.3.735t-.291.724h-1.61l3.293-8.058zm.455 5.015l-.762-1.846-.763 1.846zm3.696 3.043V31.66h2.573a3.662 3.662 0 011.488.291 3.192 3.192 0 011.128.82 3.751 3.751 0 01.72 1.265 4.95 4.95 0 01.254 1.624 4.7 4.7 0 01-.254 1.567 3.829 3.829 0 01-.72 1.259 3.349 3.349 0 01-1.128.844 3.488 3.488 0 01-1.488.308zm1.461-1.584h1.112a1.947 1.947 0 00.842-.182 2.057 2.057 0 00.673-.507 2.358 2.358 0 00.444-.764 2.859 2.859 0 000-1.88 2.359 2.359 0 00-.444-.764 2.135 2.135 0 00-.673-.513 1.9 1.9 0 00-.842-.188h-1.112zm7.476-4.81v1.607h2.4v1.6h-2.4v1.607h3.293v1.584h-4.765v-7.978h4.765v1.584zm12.845-1.664v8.058h-1.46v-5.152l-2.668 2.85-2.658-2.85v5.152h-1.474V31.58h.815l3.315 3.544 3.325-3.544zm1.769 8.058V31.66h1.461v7.978zm6.056-8.058L208 39.638h-1.62l-.6-1.459h-2.827q-.138.342-.3.735t-.291.724h-1.61l3.293-8.058zm.456 5.015l-.763-1.846-.762 1.846z"/><path d="M145.998 13.981l.439 1.384.5-1.806-.13 3.1-1.082-.085zm23.868-.058l.439 1.384.535-1.806-.164 3.1-1.082-.085zm-30.411-3.018l-.642-2.015.955-.431.523 2.58zm23.876-.055l-.642-2.014.955-.431.523 2.58z"/><path fill="#00da51" d="M50.245 16.686h5.786v1.8h-5.786z"/><path d="M8.448 16.822h75.558l4.143-2.152H2.975zm-2.776 4.415l78.369.179 4.3-2.142L0 19.072z" fill="#fff"/></svg>