<svg xmlns="http://www.w3.org/2000/svg" width="277.958" height="33.798" viewBox="0 0 277.958 33.798"><g transform="translate(9.748 0.16)"><path d="M99.875,224.978l-1.569,6.783H82.894l-1.384,6.183H95.676L94.292,243.9H80.126L77.08,257.463H68.913L76.3,224.978Z" transform="translate(-68.913 -224.378)" fill="#00da51"/><path d="M147.4,224.978h8.213l4.845,32.485h-8.167l-.877-5.353H139.233l-3.276,5.353h-8.167Zm2.307,10.059.231-3.23-1.292,3.23-5.906,11.12h7.845Z" transform="translate(-105.641 -224.378)" fill="#00da51"/><path d="M229.207,246.362a5.369,5.369,0,0,0,.183,1.384,3.086,3.086,0,0,0,.666,1.246,3.44,3.44,0,0,0,1.355.9,6.169,6.169,0,0,0,2.25.346,7.713,7.713,0,0,0,1.791-.208,5.527,5.527,0,0,0,1.538-.6,3.6,3.6,0,0,0,1.079-.945,2.032,2.032,0,0,0,.413-1.246,2.266,2.266,0,0,0-.942-1.753,14.531,14.531,0,0,0-2.345-1.546q-1.4-.761-3.058-1.592a17.757,17.757,0,0,1-3.058-1.939,10.376,10.376,0,0,1-2.345-2.584,6.372,6.372,0,0,1-.942-3.506,9.04,9.04,0,0,1,1.082-4.361A11.041,11.041,0,0,1,229.8,226.5a14.254,14.254,0,0,1,4.282-2.284,15.9,15.9,0,0,1,5.159-.831,13.886,13.886,0,0,1,4.443.646,9.544,9.544,0,0,1,3.2,1.753,7.016,7.016,0,0,1,1.934,2.653,8.6,8.6,0,0,1,.645,3.345,4.614,4.614,0,0,1-.023.462,4.531,4.531,0,0,0-.023.462l-7.337,1.2a1.04,1.04,0,0,1,.023-.208,1.057,1.057,0,0,0,.023-.208,3,3,0,0,0-1.147-2.33,4.611,4.611,0,0,0-3.12-.992,6.2,6.2,0,0,0-1.515.185,4.047,4.047,0,0,0-1.308.577,3,3,0,0,0-.918.992,2.732,2.732,0,0,0-.344,1.384,2.446,2.446,0,0,0,.943,1.915,11.682,11.682,0,0,0,2.367,1.522q1.426.717,3.081,1.477a18.9,18.9,0,0,1,3.08,1.776,9.342,9.342,0,0,1,2.368,2.422,6.035,6.035,0,0,1,.943,3.438,8.64,8.64,0,0,1-1.154,4.338,12.1,12.1,0,0,1-3.091,3.553,15.11,15.11,0,0,1-4.522,2.4,16.854,16.854,0,0,1-5.445.877,15.228,15.228,0,0,1-4.753-.669,9.544,9.544,0,0,1-3.368-1.846,7.96,7.96,0,0,1-2.031-2.7,7.827,7.827,0,0,1-.692-3.277v-.623a2.762,2.762,0,0,1,.093-.669Z" transform="translate(-164.1 -223.383)" fill="#00da51"/><path d="M325.787,224.978l-1.522,6.69h-8.906L309.5,257.463h-8.214l5.861-25.795h-8.86l1.523-6.69Z" transform="translate(-212 -224.378)" fill="#00da51"/></g><g transform="translate(124.625)"><path d="M401.787,224.555l-1.523,6.69h-8.905L385.5,257.04h-8.214l5.86-25.795h-8.859l1.522-6.69Z" transform="translate(-374.286 -223.955)" fill="#fff"/><path d="M440.767,250.256h15.919l-1.522,6.784H431.077l7.383-32.485h23.58l-1.569,6.782H445.058l-1.384,6.184H457.7l-1.384,5.953H442.29Z" transform="translate(-409.713 -223.955)" fill="#fff"/><path d="M510.462,224.555h9.091l5.814,18.826.369,2.584.369-2.63,4.292-18.78h8.214l-7.384,32.485H522.32l-6-18.735-.414-2.63-.415,2.63-4.245,18.735h-8.168Z" transform="translate(-454.629 -223.955)" fill="#fff"/><path d="M595.342,224.555h9.09l5.814,18.826.369,2.584.369-2.63,4.292-18.78h8.214l-7.383,32.485H607.2l-6-18.735-.415-2.63-.415,2.63-4.245,18.735h-8.168Z" transform="translate(-507.579 -223.955)" fill="#fff"/><path d="M680.223,224.555h8.167l-7.383,32.485H672.84Z" transform="translate(-560.529 -223.955)" fill="#fff"/><path d="M715.259,245.938a5.37,5.37,0,0,0,.183,1.385,3.073,3.073,0,0,0,.666,1.246,3.431,3.431,0,0,0,1.355.9,6.182,6.182,0,0,0,2.25.346,7.691,7.691,0,0,0,1.791-.208,5.518,5.518,0,0,0,1.538-.6,3.6,3.6,0,0,0,1.079-.946,2.035,2.035,0,0,0,.413-1.246,2.264,2.264,0,0,0-.942-1.753,14.47,14.47,0,0,0-2.345-1.546q-1.4-.761-3.058-1.592a17.7,17.7,0,0,1-3.058-1.938,10.4,10.4,0,0,1-2.345-2.584,6.375,6.375,0,0,1-.942-3.507,9.047,9.047,0,0,1,1.082-4.361,11.052,11.052,0,0,1,2.925-3.461,14.23,14.23,0,0,1,4.282-2.284,15.889,15.889,0,0,1,5.159-.831,13.878,13.878,0,0,1,4.443.646,9.542,9.542,0,0,1,3.2,1.753,7.022,7.022,0,0,1,1.934,2.653,8.611,8.611,0,0,1,.646,3.346c0,.154-.008.307-.023.462a4.414,4.414,0,0,0-.024.461l-7.337,1.2a1.037,1.037,0,0,1,.023-.207,1.12,1.12,0,0,0,.023-.208,3,3,0,0,0-1.147-2.33,4.613,4.613,0,0,0-3.12-.992,6.232,6.232,0,0,0-1.515.184,4.071,4.071,0,0,0-1.308.577,3,3,0,0,0-.918.992,2.732,2.732,0,0,0-.343,1.384,2.447,2.447,0,0,0,.942,1.916,11.683,11.683,0,0,0,2.368,1.522q1.425.715,3.081,1.476a18.979,18.979,0,0,1,3.08,1.777,9.349,9.349,0,0,1,2.368,2.422,6.041,6.041,0,0,1,.943,3.438,8.646,8.646,0,0,1-1.154,4.338,12.1,12.1,0,0,1-3.092,3.553,15.08,15.08,0,0,1-4.522,2.4,16.834,16.834,0,0,1-5.445.877,15.242,15.242,0,0,1-4.753-.669,9.557,9.557,0,0,1-3.368-1.846,7.96,7.96,0,0,1-2.03-2.7,7.817,7.817,0,0,1-.693-3.277v-.623a2.771,2.771,0,0,1,.093-.67Z" transform="translate(-582.183 -222.959)" fill="#fff"/></g><path d="M561.114,271.694l.587,1.85.67-2.414-.173,4.137-1.446-.113Z" transform="translate(-365.982 -253.009)"/><path d="M645.916,271.492l.587,1.85.715-2.414L647,275.065l-1.446-.113Z" transform="translate(-418.882 -252.883)"/><path d="M537.045,256.281l-.858-2.693,1.276-.577.7,3.448Z" transform="translate(-350.658 -241.707)"/><path d="M621.875,256.085l-.858-2.692,1.276-.577.7,3.448Z" transform="translate(-403.576 -241.584)"/><rect width="7.733" height="2.405" transform="translate(67.155 22.302)" fill="#00da51"/><path d="M60.884,277.958H161.872l5.537-2.877H53.569Z" transform="translate(-49.593 -255.474)"/><path d="M50.581,293.612l104.744.239,5.75-2.863L43,290.719Z" transform="translate(-43 -265.228)"/></svg>