<svg xmlns="http://www.w3.org/2000/svg" width="208" height="39.718" viewBox="0 0 208 39.718"><g transform="translate(-43 -222.959)"><g transform="translate(50.294 223.078)"><path d="M92.079,224.978,90.9,230.053H79.374l-1.036,4.626h10.6L87.9,239.133H77.3l-2.278,10.15H68.913l5.524-24.305Z" transform="translate(-68.913 -224.529)" fill="#00da51"/><path d="M142.462,224.978h6.145l3.625,24.305h-6.111l-.656-4h-9.115l-2.451,4h-6.111Zm1.726,7.526.173-2.417-.967,2.417-4.419,8.32h5.869Z" transform="translate(-111.218 -224.529)" fill="#00da51"/><path d="M227.266,240.576a4.017,4.017,0,0,0,.137,1.036,2.309,2.309,0,0,0,.5.932,2.574,2.574,0,0,0,1.014.673,4.616,4.616,0,0,0,1.683.259,5.771,5.771,0,0,0,1.34-.155,4.135,4.135,0,0,0,1.151-.449,2.7,2.7,0,0,0,.807-.707,1.521,1.521,0,0,0,.309-.932,1.7,1.7,0,0,0-.705-1.312,10.872,10.872,0,0,0-1.754-1.157q-1.049-.569-2.288-1.191a13.286,13.286,0,0,1-2.288-1.45,7.763,7.763,0,0,1-1.754-1.933,4.767,4.767,0,0,1-.705-2.623,6.764,6.764,0,0,1,.81-3.263,8.261,8.261,0,0,1,2.188-2.589,10.665,10.665,0,0,1,3.2-1.709,11.9,11.9,0,0,1,3.86-.621,10.39,10.39,0,0,1,3.325.483,7.141,7.141,0,0,1,2.395,1.312,5.249,5.249,0,0,1,1.447,1.985,6.438,6.438,0,0,1,.483,2.5,3.453,3.453,0,0,1-.017.345,3.393,3.393,0,0,0-.017.345l-5.489.9a.777.777,0,0,1,.017-.155.791.791,0,0,0,.017-.155,2.245,2.245,0,0,0-.858-1.743,3.45,3.45,0,0,0-2.335-.742,4.642,4.642,0,0,0-1.133.138,3.028,3.028,0,0,0-.979.431,2.242,2.242,0,0,0-.687.742,2.044,2.044,0,0,0-.258,1.036,1.83,1.83,0,0,0,.705,1.433,8.741,8.741,0,0,0,1.771,1.139q1.067.536,2.305,1.105a14.14,14.14,0,0,1,2.3,1.329,6.99,6.99,0,0,1,1.772,1.812,4.516,4.516,0,0,1,.706,2.572,6.464,6.464,0,0,1-.863,3.246,9.051,9.051,0,0,1-2.313,2.658,11.305,11.305,0,0,1-3.383,1.8,12.61,12.61,0,0,1-4.074.656,11.394,11.394,0,0,1-3.556-.5,7.141,7.141,0,0,1-2.52-1.381,5.956,5.956,0,0,1-1.519-2.019,5.856,5.856,0,0,1-.518-2.452v-.466a2.067,2.067,0,0,1,.07-.5Z" transform="translate(-178.553 -223.383)" fill="#00da51"/><path d="M318.863,224.978l-1.139,5.006H311.06l-4.385,19.3H300.53l4.385-19.3h-6.629l1.139-5.006Z" transform="translate(-233.726 -224.529)" fill="#00da51"/></g><g transform="translate(136.244 222.959)"><path d="M394.863,224.555l-1.139,5.006H387.06l-4.385,19.3H376.53l4.385-19.3h-6.628l1.139-5.006Z" transform="translate(-374.286 -224.106)"/><path d="M438.327,243.785h11.911L449.1,248.86H431.077l5.524-24.305h17.642l-1.174,5.074H441.538l-1.036,4.627H451l-1.036,4.454h-10.5Z" transform="translate(-415.092 -224.106)"/><path d="M508.6,224.555h6.8l4.35,14.085.276,1.934.276-1.968,3.211-14.051h6.145l-5.525,24.305h-6.663l-4.488-14.017-.31-1.968-.311,1.968L509.19,248.86h-6.111Z" transform="translate(-466.829 -224.106)"/><path d="M593.483,224.555h6.8l4.35,14.085.276,1.934.276-1.968,3.211-14.051h6.145l-5.524,24.305h-6.663l-4.488-14.017-.31-1.968-.311,1.968L594.07,248.86h-6.111Z" transform="translate(-527.818 -224.106)"/><path d="M678.364,224.555h6.111l-5.524,24.305H672.84Z" transform="translate(-588.809 -224.106)"/><path d="M713.318,240.152a4.018,4.018,0,0,0,.137,1.036,2.3,2.3,0,0,0,.5.932,2.567,2.567,0,0,0,1.013.674,4.625,4.625,0,0,0,1.683.259,5.754,5.754,0,0,0,1.34-.156,4.128,4.128,0,0,0,1.151-.449,2.692,2.692,0,0,0,.808-.708,1.522,1.522,0,0,0,.309-.932,1.694,1.694,0,0,0-.705-1.312,10.829,10.829,0,0,0-1.754-1.157q-1.05-.569-2.288-1.191a13.241,13.241,0,0,1-2.288-1.45,7.778,7.778,0,0,1-1.755-1.933,4.77,4.77,0,0,1-.7-2.624,6.769,6.769,0,0,1,.809-3.263,8.269,8.269,0,0,1,2.188-2.589,10.647,10.647,0,0,1,3.2-1.709,11.888,11.888,0,0,1,3.86-.622,10.384,10.384,0,0,1,3.325.484,7.139,7.139,0,0,1,2.395,1.312,5.255,5.255,0,0,1,1.447,1.985,6.444,6.444,0,0,1,.483,2.5c0,.115-.006.23-.017.345a3.291,3.291,0,0,0-.018.345l-5.489.9a.776.776,0,0,1,.017-.155.835.835,0,0,0,.017-.156,2.245,2.245,0,0,0-.858-1.743,3.451,3.451,0,0,0-2.334-.742,4.664,4.664,0,0,0-1.134.138,3.046,3.046,0,0,0-.978.432,2.244,2.244,0,0,0-.687.742,2.044,2.044,0,0,0-.257,1.036,1.831,1.831,0,0,0,.7,1.433,8.741,8.741,0,0,0,1.772,1.139q1.066.535,2.3,1.1a14.2,14.2,0,0,1,2.3,1.33,7,7,0,0,1,1.772,1.812,4.52,4.52,0,0,1,.706,2.572,6.47,6.47,0,0,1-.863,3.246,9.057,9.057,0,0,1-2.313,2.658,11.282,11.282,0,0,1-3.383,1.795,12.6,12.6,0,0,1-4.074.656,11.4,11.4,0,0,1-3.556-.5,7.15,7.15,0,0,1-2.52-1.381,5.956,5.956,0,0,1-1.519-2.019,5.849,5.849,0,0,1-.518-2.452v-.466a2.073,2.073,0,0,1,.07-.5Z" transform="translate(-613.75 -222.959)"/></g><g transform="translate(196.285 254.539)"><path d="M591.521,335.16l3.336,8.058h-1.62l-.6-1.459h-2.827q-.138.342-.3.735t-.291.724H587.6l3.293-8.058Zm.455,5.015-.762-1.846-.762,1.846Z" transform="translate(-587.603 -335.16)"/><path d="M619.574,341.884a4.873,4.873,0,0,1-1.35,1.043,3.318,3.318,0,0,1-1.53.37,3.447,3.447,0,0,1-1.557-.347,3.783,3.783,0,0,1-1.191-.918,4.119,4.119,0,0,1-.757-1.3,4.345,4.345,0,0,1-.265-1.493,4.242,4.242,0,0,1,.312-1.641,4.09,4.09,0,0,1,.837-1.294,3.821,3.821,0,0,1,1.207-.844,3.411,3.411,0,0,1,2.88.034,4.062,4.062,0,0,1,1.3.963l-1.027,1.117a2.747,2.747,0,0,0-.821-.616,2.1,2.1,0,0,0-.916-.216,2.055,2.055,0,0,0-.9.2,2.393,2.393,0,0,0-.731.535,2.5,2.5,0,0,0-.492.792,2.613,2.613,0,0,0-.18.969,2.565,2.565,0,0,0,.18.963,2.508,2.508,0,0,0,.492.786,2.314,2.314,0,0,0,.731.53,2.1,2.1,0,0,0,.9.194,2.011,2.011,0,0,0,.979-.245,3.414,3.414,0,0,0,.863-.689Z" transform="translate(-605.797 -335.16)"/><path d="M640.205,335.16l3.336,8.058h-1.62l-.6-1.459H638.49q-.138.342-.3.735t-.291.724h-1.61l3.293-8.058Zm.455,5.015-.762-1.846-.763,1.846Z" transform="translate(-622.584 -335.16)"/><path d="M664.956,343.422v-7.978h2.573a3.662,3.662,0,0,1,1.488.291,3.192,3.192,0,0,1,1.128.82,3.751,3.751,0,0,1,.72,1.265,4.95,4.95,0,0,1,.254,1.624,4.7,4.7,0,0,1-.254,1.567,3.829,3.829,0,0,1-.72,1.259,3.349,3.349,0,0,1-1.128.844,3.488,3.488,0,0,1-1.488.308Zm1.461-1.584h1.112a1.947,1.947,0,0,0,.842-.182,2.057,2.057,0,0,0,.673-.507,2.358,2.358,0,0,0,.444-.764,2.859,2.859,0,0,0,0-1.88,2.359,2.359,0,0,0-.444-.764,2.135,2.135,0,0,0-.673-.513,1.9,1.9,0,0,0-.842-.188h-1.112Z" transform="translate(-643.184 -335.364)"/><path d="M692.952,337.028v1.607h2.4v1.6h-2.4v1.607h3.293v1.584H691.48v-7.978h4.765v1.584Z" transform="translate(-662.243 -335.364)"/><path d="M721.26,335.16v8.058H719.8v-5.152l-2.668,2.85-2.658-2.85v5.152H713V335.16h.815l3.315,3.544,3.325-3.544Z" transform="translate(-677.706 -335.16)"/><path d="M748.629,343.422v-7.978h1.461v7.978Z" transform="translate(-703.306 -335.364)"/><path d="M760.146,335.16l3.336,8.058h-1.62l-.6-1.459h-2.827q-.138.342-.3.735t-.291.724h-1.61l3.293-8.058Zm.456,5.015-.763-1.846-.762,1.846Z" transform="translate(-708.767 -335.16)"/></g><path d="M561.023,271.552l.439,1.384.5-1.806-.13,3.1-1.082-.085Z" transform="translate(-372.025 -34.612)"/><path d="M645.824,271.35l.439,1.384.535-1.806-.164,3.1-1.082-.085Z" transform="translate(-432.958 -34.468)"/><path d="M536.829,255.458l-.642-2.015.955-.431.523,2.58Z" transform="translate(-354.374 -21.594)"/><path d="M621.659,255.262l-.642-2.014.955-.431.523,2.58Z" transform="translate(-415.328 -21.453)"/><rect width="5.786" height="1.8" transform="translate(93.245 239.645)" fill="#00da51"/><path d="M59.042,277.233H134.6l4.143-2.152H53.569Z" transform="translate(-7.594 -37.452)" fill="#fff"/><path d="M48.672,292.884l78.369.179,4.3-2.142L43,290.719Z" transform="translate(0 -48.688)" fill="#fff"/></g></svg>